<svg class="w-6 h-6" aria-hidden="true" xmlns="http://www.w3.org/2000/svg" width="24" height="24" fill="currentColor" viewBox="0 0 24 24">
    <g transform="matrix(0.488926,0,0,0.488926,0.760081,1.44666)">
        <path d="M37.043,0.804L33.133,1.872L26.55,3.646L22.275,4.812L17.246,6.196L2.381,10.204L0,19.58L6.097,25.677L10.713,30.317L15.085,25.896L15.06,20.285L23.733,11.613L25.408,13.265L24.728,17.904L27.206,20.382L31.845,19.702L33.497,21.378L24.826,30.025L19.19,30.001L14.818,34.373L18.364,37.944L25.02,44.6L34.445,42.316L35.61,37.944L37.02,32.746L40.08,21.305L41.44,16.277L43.772,7.605L37.043,0.804Z" style="fill-rule:nonzero;"/>
    </g>
</svg>
